<svg width="78" height="78" viewBox="0 0 78 78" fill="none" xmlns="http://www.w3.org/2000/svg">
<circle cx="39" cy="39" r="39" fill="#E6F3FF"/>
<path fill-rule="evenodd" clip-rule="evenodd" d="M25.6306 37.8867C25.0179 37.8867 24.5006 38.4072 24.5006 39.0199V43.606C24.5006 44.2189 25.0174 44.736 25.6306 44.736H27.4858C28.0985 44.736 28.6189 44.2188 28.6189 43.606V39.0199C28.6189 38.4071 28.099 37.8867 27.4858 37.8867H25.6306ZM26.1077 39.4939H27.0118V43.1288H26.1077V39.4939Z" fill="#0A85FF"/>
<path fill-rule="evenodd" clip-rule="evenodd" d="M49.4179 37.8867C48.8052 37.8867 48.2848 38.4072 48.2848 39.0199V43.606C48.2848 44.2189 48.8047 44.736 49.4179 44.736H51.2731C51.8858 44.736 52.4031 44.2188 52.4031 43.606V39.0199C52.4031 38.4071 51.8863 37.8867 51.2731 37.8867H49.4179ZM49.8919 39.4939H50.796V43.1288H49.8919V39.4939Z" fill="#0A85FF"/>
<path fill-rule="evenodd" clip-rule="evenodd" d="M34.9911 21.1086C33.0471 21.1086 31.4566 22.6991 31.4566 24.6432V25.4091C31.4566 26.1376 31.6785 26.822 32.0593 27.3866L32.2978 27.7413H44.6718L44.9103 27.3866C45.2911 26.822 45.513 26.1376 45.513 25.4091V24.6432C45.513 22.6991 43.9225 21.1086 41.9785 21.1086H34.9911ZM34.9911 22.7158H41.9785C43.0591 22.7158 43.9058 23.5625 43.9058 24.6432V25.4091C43.9058 25.6816 43.7844 25.9031 43.6861 26.1342H33.2835C33.1851 25.9031 33.0637 25.6816 33.0637 25.4091V24.6432C33.0637 23.5625 33.9104 22.7158 34.9911 22.7158Z" fill="#0A85FF"/>
<path fill-rule="evenodd" clip-rule="evenodd" d="M19.5409 26.1938C17.5974 26.1938 16.0064 27.7815 16.0064 29.7252V52.5489C16.0064 54.4924 17.5973 56.0803 19.5409 56.0803H57.4287C59.3723 56.0803 60.9632 54.4924 60.9632 52.5489V29.7252C60.9632 27.7815 59.3722 26.1938 57.4287 26.1938H19.5409ZM19.5409 27.801H57.4287C58.5097 27.801 59.356 28.6441 59.356 29.7252V52.5489C59.356 53.6297 58.5096 54.4731 57.4287 54.4731H19.5409C18.46 54.4731 17.6136 53.6297 17.6136 52.5489V29.7252C17.6136 28.6441 18.4599 27.801 19.5409 27.801Z" fill="#0A85FF"/>
<path fill-rule="evenodd" clip-rule="evenodd" d="M18.8755 26.1907L18.8221 26.47C17.3743 26.7958 16.1496 27.8494 16.0221 29.3799L16.019 29.4121V29.4442C16.0026 33.1692 15.9992 34.9973 16.0001 35.8978C16.0006 36.348 16.0018 36.5656 16.0033 36.6765C16.004 36.7328 16.005 36.7552 16.0064 36.7858C16.0071 36.8018 16.0188 36.8917 16.019 36.8917C16.019 36.892 16.0629 37.0581 16.0629 37.0581L16.1383 37.1995L16.2513 37.3378L16.81 36.7601L16.4616 37.482L26.1077 42.1342V39.4943H27.0117V42.5704L38.4785 48.0983L49.8919 42.5923V39.4943H50.7959V42.156L60.4358 37.5103C60.448 37.5103 60.5206 37.5362 60.5206 37.5362C60.5206 37.5362 60.9349 36.9745 60.9349 36.9743C60.9349 36.9743 60.9444 36.9211 60.9444 36.9211C60.9446 36.9211 60.9456 36.8522 60.9476 36.7991C60.9484 36.7766 60.9505 36.7652 60.9508 36.746C60.9514 36.6817 60.9532 36.5798 60.954 36.4197C60.9568 35.7796 60.9588 34.2114 60.9635 30.487L60.954 30.6059C61.104 29.613 60.8838 28.5925 60.3419 27.7619C59.8001 26.9314 58.8857 26.2871 57.7617 26.2113H57.7365H57.7114C44.9912 26.1759 32.2725 26.2121 19.5569 26.1952C19.5517 26.1952 19.5464 26.1952 19.5412 26.1952H18.8757L18.8755 26.1907ZM19.5252 27.801H19.5409L20.2064 27.8171L20.2095 27.801C32.697 27.8171 45.179 27.7817 57.6609 27.8171C58.2509 27.8589 58.6824 28.1603 58.995 28.6397C59.3091 29.121 59.454 29.7798 59.3654 30.3661L59.3559 30.4222V30.4817C59.3514 34.1049 59.3493 35.5831 59.3465 36.2512L52.403 39.5973V39.0198C52.403 38.4106 51.8909 37.8866 51.2729 37.8866H49.4178C48.7989 37.8866 48.2846 38.401 48.2846 39.0198V41.5843L38.4784 46.3148L28.6188 41.5592V39.0198C28.6188 38.4013 28.1036 37.8866 27.4856 37.8866H25.6305C25.0116 37.8866 24.5004 38.4102 24.5004 39.0198V39.5754L17.6073 36.2512C17.6068 36.1322 17.6075 36.1034 17.6073 35.8933C17.6064 35.0068 17.6101 33.1635 17.6261 29.5055C17.7066 28.5908 18.6041 27.7836 19.5252 27.801Z" fill="#0A85FF"/>
<path fill-rule="evenodd" clip-rule="evenodd" d="M37.1507 40.1279C36.538 40.1279 36.0207 40.6455 36.0207 41.258V42.4947C36.0207 43.1077 36.5375 43.6248 37.1507 43.6248H39.8189C40.4316 43.6248 40.9489 43.1074 40.9489 42.4947V41.258C40.9489 40.6452 40.4321 40.1279 39.8189 40.1279H37.1507ZM37.6279 41.7351H39.3418V42.0176H37.6279V41.7351Z" fill="#0A85FF"/>
</svg>
