<svg width="817" height="1051" viewBox="0 0 817 1051" fill="none" xmlns="http://www.w3.org/2000/svg">
<path d="M80.481 256.843H322.393L424.053 151.852H603.84L745.034 6.7038L743.622 5.73615L603.37 150.401H423.582L321.923 254.908H80.481V256.843Z" fill="#64B2FF"/>
<path d="M80.9513 249.586C77.6567 249.586 74.8328 252.489 74.8328 255.875C74.8328 259.262 77.6567 262.165 80.9513 262.165C84.2458 262.165 87.0697 259.262 87.0697 255.875C87.0697 252.489 84.2458 249.586 80.9513 249.586Z" fill="#64B2FF"/>
<path d="M739.857 2.34957C742.21 -0.069568 745.975 -0.069568 748.329 2.34957C750.682 4.76871 750.682 8.63934 748.329 11.0585C745.975 13.4776 742.21 13.4776 739.857 11.0585C737.504 8.63934 737.504 4.76871 739.857 2.34957Z" fill="#64B2FF"/>
<path d="M827.397 1045H990.711V1043.55H828.338L738.445 951.137H558.657L456.527 846.146H209.437L118.603 752.767L117.191 753.735L208.967 848.081H456.056L557.716 952.588H737.503L827.397 1045Z" fill="#64B2FF"/>
<path d="M122.368 749.38C120.014 746.961 116.249 746.961 113.896 749.38C111.543 751.8 111.543 755.67 113.896 758.089C116.249 760.508 120.014 760.508 122.368 758.089C124.721 755.67 124.721 751.8 122.368 749.38Z" fill="#64B2FF"/>
<path d="M6.58881 379.252L88.952 294.582H371.811L456.527 207.493H570.424L615.606 254.424H960.59V252.972H616.547L570.894 206.041H456.057L371.34 293.13H88.0107L5.64752 378.284L6.58881 379.252Z" fill="#64B2FF"/>
<path d="M6.11836 384.574C2.73927 384.574 -3.62396e-05 381.758 -3.62396e-05 378.284C-3.62396e-05 374.81 2.73927 371.994 6.11836 371.994C9.49745 371.994 12.2368 374.81 12.2368 378.284C12.2368 381.758 9.49745 384.574 6.11836 384.574Z" fill="#64B2FF"/>
<path d="M231.558 825.341H327.57L398.167 752.767H537.008L605.723 681.644H812.337V680.193H605.252L536.067 750.832H397.697L326.629 823.89H232.5L135.076 723.737L134.134 724.705L231.558 825.341Z" fill="#64B2FF"/>
<path d="M139.312 720.351C136.959 717.931 133.194 717.931 130.84 720.351C128.487 722.77 128.487 726.64 130.84 729.059C133.194 731.479 136.959 731.479 139.312 729.059C141.665 726.64 141.665 722.77 139.312 720.351Z" fill="#64B2FF"/>
<path d="M812.337 686.966C808.957 686.966 806.218 684.15 806.218 680.677C806.218 677.203 808.957 674.387 812.337 674.387C815.716 674.387 818.455 677.203 818.455 680.677C818.455 684.15 815.716 686.966 812.337 686.966Z" fill="#64B2FF"/>
<path d="M16.9432 418.926L97.4238 336.191H366.634L456.998 243.78H539.361L605.252 311.516H864.578V310.064H606.193L539.832 242.328H456.057L366.163 334.739H96.4825L15.5312 417.958L16.9432 418.926Z" fill="#64B2FF"/>
<path d="M20.7085 422.796C18.3553 425.215 14.5901 425.215 12.2369 422.796C9.88366 420.377 9.88366 416.506 12.2369 414.087C14.5901 411.668 18.3553 411.668 20.7085 414.087C23.0618 416.506 23.0618 420.377 20.7085 422.796Z" fill="#64B2FF"/>
<path d="M243.795 744.058H360.986L496.532 604.716H776.567L843.87 674.387L845.282 672.935L777.038 603.264H496.062L360.515 742.606H244.736L177.904 674.387H57.8895V675.838H177.434L243.795 744.058Z" fill="#64B2FF"/>
<path d="M58.3599 669.065C55.0654 669.065 52.2416 671.968 52.2416 675.354C52.2416 678.741 55.0654 681.644 58.3599 681.644C61.6544 681.644 64.4783 678.741 64.4783 675.354C64.4783 671.484 61.6544 669.065 58.3599 669.065Z" fill="#64B2FF"/>
<path d="M217.909 773.088H282.388V771.152H218.851L145.43 695.675L144.488 697.127L217.909 773.088Z" fill="#64B2FF"/>
<path d="M149.195 692.289C146.842 689.869 143.077 689.869 140.723 692.289C138.37 694.708 138.37 698.578 140.723 700.997C143.077 703.417 146.842 703.417 149.195 700.997C151.548 698.578 151.548 694.708 149.195 692.289Z" fill="#64B2FF"/>
<path d="M282.388 778.41C279.009 778.41 276.27 775.594 276.27 772.12C276.27 768.646 279.009 765.83 282.388 765.83C285.767 765.83 288.506 768.646 288.506 772.12C288.506 775.594 285.767 778.41 282.388 778.41Z" fill="#64B2FF"/>
<path d="M16.9435 468.277L103.072 379.736H345.926L427.347 296.034H562.423L633.02 368.124H924.821L1011.42 279.584L1010.48 278.616L924.351 366.673H633.491L563.364 294.098H426.877L345.455 377.801H102.601L15.5315 467.309L16.9435 468.277Z" fill="#64B2FF"/>
<path d="M12.2365 462.954C9.88323 465.374 9.88323 469.244 12.2365 471.663C14.5897 474.082 18.3548 474.082 20.7081 471.663C23.0613 469.244 23.0613 465.374 20.7081 462.954C18.3548 460.535 14.5897 460.535 12.2365 462.954Z" fill="#64B2FF"/>
<path d="M53.1831 485.694L123.31 413.603H340.748L425.935 326.03H557.246L664.553 436.343L665.495 434.892L558.187 324.579H424.994L340.278 411.668H122.368L51.7712 484.242L53.1831 485.694Z" fill="#64B2FF"/>
<path d="M48.4766 480.371C46.1234 482.791 46.1234 486.661 48.4766 489.08C50.8299 491.5 54.595 491.5 56.9483 489.08C59.3015 486.661 59.3015 482.791 56.9483 480.371C54.595 477.952 50.8299 477.952 48.4766 480.371Z" fill="#64B2FF"/>
<path d="M664.553 441.665C661.174 441.665 658.435 438.849 658.435 435.376C658.435 431.902 661.174 429.086 664.553 429.086C667.932 429.086 670.672 431.902 670.672 435.376C670.672 438.849 667.932 441.665 664.553 441.665Z" fill="#64B2FF"/>
<path d="M289.918 702.449H371.34L526.653 542.785H938.94V540.85H526.183L370.869 700.997H290.389L232.499 641.002H74.8325L6.58868 570.847L5.6474 572.299L73.8912 642.454H231.558L289.918 702.449Z" fill="#64B2FF"/>
<path d="M10.3542 567.461C8.00093 565.042 4.23575 565.042 1.88252 567.461C-0.470705 569.88 -0.470705 573.751 1.88252 576.17C4.23575 578.589 8.00093 578.589 10.3542 576.17C12.7074 573.751 12.7074 569.88 10.3542 567.461Z" fill="#64B2FF"/>
<path d="M367.575 511.337H422.641V509.402H368.046L317.687 457.632H128.957V459.083H316.745L367.575 511.337Z" fill="#64B2FF"/>
<path d="M129.428 452.31C126.133 452.31 123.309 455.213 123.309 458.6C123.309 461.986 126.133 464.889 129.428 464.889C132.722 464.889 135.546 461.986 135.546 458.6C135.546 455.213 132.722 452.31 129.428 452.31Z" fill="#64B2FF"/>
<path d="M422.641 516.659C419.262 516.659 416.523 513.843 416.523 510.369C416.523 506.895 419.262 504.079 422.641 504.079C426.02 504.079 428.759 506.895 428.759 510.369C428.759 513.843 426.02 516.659 422.641 516.659Z" fill="#64B2FF"/>
<path d="M370.869 460.051L448.056 380.703H559.599V379.252H447.585L369.928 459.084L370.869 460.051Z" fill="#64B2FF"/>
<path d="M366.634 455.213C364.281 457.632 364.281 461.503 366.634 463.922C368.987 466.341 372.752 466.341 375.106 463.922C377.459 461.503 377.459 457.632 375.106 455.213C372.752 452.794 368.516 452.794 366.634 455.213Z" fill="#64B2FF"/>
<path d="M559.599 373.93C562.894 373.93 565.717 376.833 565.717 380.22C565.717 383.607 562.894 386.51 559.599 386.51C556.304 386.51 553.481 383.607 553.481 380.22C553.481 376.833 556.304 373.93 559.599 373.93Z" fill="#64B2FF"/>
<path d="M422.641 468.276L476.765 412.636H575.13V411.184H475.824L421.699 467.309L422.641 468.276Z" fill="#64B2FF"/>
<path d="M422.17 473.598C418.791 473.598 416.052 470.782 416.052 467.309C416.052 463.835 418.791 461.019 422.17 461.019C425.549 461.019 428.289 463.835 428.289 467.309C428.289 470.782 425.549 473.598 422.17 473.598Z" fill="#64B2FF"/>
<path d="M575.13 418.442C571.751 418.442 569.012 415.626 569.012 412.152C569.012 408.678 571.751 405.862 575.13 405.862C578.509 405.862 581.249 408.678 581.249 412.152C581.249 415.626 578.509 418.442 575.13 418.442Z" fill="#64B2FF"/>
<path d="M460.763 710.674L530.419 639.551H753.035V637.616H529.478L459.822 709.707L460.763 710.674Z" fill="#64B2FF"/>
<path d="M456.527 705.836C454.174 708.255 454.174 712.126 456.527 714.545C458.88 716.964 462.646 716.964 464.999 714.545C467.352 712.126 467.352 708.255 464.999 705.836C462.646 703.417 458.88 703.417 456.527 705.836Z" fill="#64B2FF"/>
<path d="M752.564 644.874C749.185 644.874 746.446 642.058 746.446 638.584C746.446 635.11 749.185 632.294 752.564 632.294C755.943 632.294 758.683 635.11 758.683 638.584C758.683 642.058 755.943 644.874 752.564 644.874Z" fill="#64B2FF"/>
<path d="M826.927 1003.39H978.004V1001.94H827.397L712.559 883.401H580.778L505.945 806.472H363.81V807.923H505.004L580.308 885.336H712.089L826.927 1003.39Z" fill="#64B2FF"/>
<path d="M364.28 813.729C360.901 813.729 358.162 810.913 358.162 807.44C358.162 803.966 360.901 801.15 364.28 801.15C367.66 801.15 370.399 803.966 370.399 807.44C370.399 810.913 367.66 813.729 364.28 813.729Z" fill="#64B2FF"/>
<path d="M984.123 822.438L985.535 820.987L896.112 729.543H629.255L577.484 782.765H415.581V784.216H577.954L629.726 730.995H895.641L984.123 822.438Z" fill="#64B2FF"/>
<path d="M415.581 789.538C412.202 789.538 409.463 786.722 409.463 783.249C409.463 779.775 412.202 776.959 415.581 776.959C418.96 776.959 421.699 779.775 421.699 783.249C421.699 786.722 418.96 789.538 415.581 789.538Z" fill="#64B2FF"/>
<path d="M835.869 922.591H960.59L1004.83 877.111L1003.42 876.143L960.12 920.656H836.81L743.622 824.858H591.132V826.793H742.681L835.869 922.591Z" fill="#64B2FF"/>
<path d="M591.603 819.536C588.309 819.536 585.485 822.439 585.485 825.825C585.485 829.212 588.309 832.115 591.603 832.115C594.898 832.115 597.722 829.212 597.722 825.825C597.722 822.439 594.898 819.536 591.603 819.536Z" fill="#64B2FF"/>
<path d="M870.696 860.177H933.763V858.242H871.638L800.57 785.184H642.903V787.119H799.629L870.696 860.177Z" fill="#64B2FF"/>
<path d="M643.374 779.862C640.08 779.862 637.256 782.765 637.256 786.152C637.256 789.538 640.08 792.441 643.374 792.441C646.669 792.441 649.493 789.538 649.493 786.152C649.022 782.765 646.669 779.862 643.374 779.862Z" fill="#64B2FF"/>
<path d="M999.654 702.933L1001.07 701.481L885.758 583.427H583.602V584.879H885.287L999.654 702.933Z" fill="#64B2FF"/>
<path d="M583.602 578.105C580.308 578.105 577.484 581.008 577.484 584.395C577.484 587.782 580.308 590.685 583.602 590.685C586.897 590.685 589.721 587.782 589.721 584.395C589.721 580.524 586.897 578.105 583.602 578.105Z" fill="#64B2FF"/>
<path d="M336.041 650.195H384.518L525.712 504.563H964.826V503.112H525.242L383.577 648.26H336.512L280.976 591.168H128.486L83.7748 545.205L82.3629 546.172L127.545 593.104H280.034L336.041 650.195Z" fill="#64B2FF"/>
<path d="M87.5403 541.818C85.1871 539.399 81.4219 539.399 79.0686 541.818C76.7154 544.237 76.7154 548.108 79.0686 550.527C81.4219 552.946 85.1871 552.946 87.5403 550.527C89.8935 548.108 89.8935 544.237 87.5403 541.818Z" fill="#64B2FF"/>
<path d="M340.278 605.683H392.049L528.536 464.889H988.358V463.438H528.066L391.578 603.748H341.219L301.685 563.59H140.253L98.8359 521.013L97.8946 522.465L139.312 565.041H300.743L340.278 605.683Z" fill="#64B2FF"/>
<path d="M103.071 517.627C100.718 515.207 96.953 515.207 94.5998 517.627C92.2465 520.046 92.2465 523.916 94.5998 526.336C96.953 528.755 100.718 528.755 103.071 526.336C105.425 523.916 105.425 520.046 103.071 517.627Z" fill="#64B2FF"/>
<path d="M343.101 548.592L344.513 547.624L291.33 492.952H126.133V494.403H290.389L343.101 548.592Z" fill="#64B2FF"/>
<path d="M126.133 487.63C122.839 487.63 120.015 490.533 120.015 493.919C120.015 497.306 122.839 500.209 126.133 500.209C129.428 500.209 132.252 497.306 132.252 493.919C132.252 490.533 129.428 487.63 126.133 487.63Z" fill="#64B2FF"/>
<path d="M343.572 554.398C340.193 554.398 337.454 551.582 337.454 548.108C337.454 544.634 340.193 541.818 343.572 541.818C346.951 541.818 349.69 544.634 349.69 548.108C349.69 551.582 346.951 554.398 343.572 554.398Z" fill="#64B2FF"/>
<path d="M480.06 186.204H642.904L767.154 58.957L765.743 57.5056L641.962 184.752H480.06V186.204Z" fill="#64B2FF"/>
<path d="M480.53 179.431C477.236 179.431 474.412 182.334 474.412 185.72C474.412 189.107 477.236 192.01 480.53 192.01C483.825 192.01 486.649 189.107 486.649 185.72C486.178 182.334 483.825 179.431 480.53 179.431Z" fill="#64B2FF"/>
<path d="M761.977 54.119C764.33 51.6998 768.096 51.6998 770.449 54.119C772.802 56.5381 772.802 60.4087 770.449 62.8279C768.096 65.247 764.33 65.247 761.977 62.8279C759.624 60.4087 759.624 56.5381 761.977 54.119Z" fill="#64B2FF"/>
<path d="M697.969 188.139L777.979 105.889H997.771V104.437H777.038L697.028 186.688L697.969 188.139Z" fill="#64B2FF"/>
<path d="M693.263 182.818C690.909 185.237 690.909 189.107 693.263 191.527C695.616 193.946 699.381 193.946 701.734 191.527C704.088 189.107 704.088 185.237 701.734 182.818C699.381 180.399 695.616 180.399 693.263 182.818Z" fill="#64B2FF"/>
</svg>
