<svg width="78" height="78" viewBox="0 0 78 78" fill="none" xmlns="http://www.w3.org/2000/svg">
<circle cx="39" cy="39" r="39" fill="#E6F3FF"/>
<path d="M39.5 27.1875V26.3438C40.8956 26.3438 42.0312 25.2081 42.0312 23.8125C42.0312 22.4169 40.8956 21.2812 39.5 21.2812H37.8125C37.3476 21.2812 36.9688 20.9024 36.9688 20.4375C36.9688 19.9726 37.3476 19.5938 37.8125 19.5938H40.3438C40.8103 19.5938 41.1875 19.2157 41.1875 18.75C41.1875 18.2843 40.8103 17.9062 40.3438 17.9062H39.5V17.0625C39.5 16.5968 39.122 16.2188 38.6562 16.2188C38.1905 16.2188 37.8125 16.5968 37.8125 17.0625V17.9062C36.4169 17.9062 35.2812 19.0419 35.2812 20.4375C35.2812 21.8331 36.4169 22.9688 37.8125 22.9688H39.5C39.9658 22.9688 40.3438 23.3476 40.3438 23.8125C40.3438 24.2774 39.9658 24.6562 39.5 24.6562H36.9688C36.503 24.6562 36.125 25.0343 36.125 25.5C36.125 25.9657 36.503 26.3438 36.9688 26.3438H37.8125V27.1875C37.8125 27.6532 38.1905 28.0312 38.6562 28.0312C39.122 28.0312 39.5 27.6532 39.5 27.1875Z" fill="#0A85FF"/>
<path d="M48.7812 47.4375H39.5V44.9062H42.0312C45.8948 44.9062 47.9375 42.8644 47.9375 39V35.625C47.9375 35.1593 47.5603 34.7812 47.0938 34.7812H43.7188C41.8929 34.7812 40.4889 35.2529 39.5 36.1414V32.207C44.6891 31.7758 48.7812 27.4229 48.7812 22.125C48.7812 16.5419 44.2393 12 38.6562 12C33.0732 12 28.5312 16.5419 28.5312 22.125C28.5312 27.4229 32.6243 31.7758 37.8125 32.207V36.1414C36.8236 35.2529 35.4196 34.7812 33.5938 34.7812H30.2188C29.753 34.7812 29.375 35.1593 29.375 35.625V39C29.375 42.8644 31.4169 44.9062 35.2812 44.9062H37.8125V47.4375H28.5312C27.1357 47.4375 26 48.5732 26 49.9688V50.8125C26 52.2081 27.1357 53.3438 28.5312 53.3438H28.6367L30.0036 63.5945C30.1825 64.9436 31.389 66 32.75 66H44.5625C45.9226 66 47.13 64.9436 47.3097 63.5953L48.6766 53.3438H48.7812C50.1768 53.3438 51.3125 52.2081 51.3125 50.8125V49.9688C51.3125 48.5732 50.1768 47.4375 48.7812 47.4375ZM43.7188 36.4688H46.25V39C46.25 41.9177 44.9489 43.2188 42.0312 43.2188H39.5V40.6875C39.5 37.7698 40.8011 36.4688 43.7188 36.4688ZM30.2188 22.125C30.2188 17.4726 34.0038 13.6875 38.6562 13.6875C43.3087 13.6875 47.0938 17.4726 47.0938 22.125C47.0938 26.7774 43.3087 30.5625 38.6562 30.5625C34.0038 30.5625 30.2188 26.7774 30.2188 22.125ZM31.0625 39V36.4688H33.5938C36.5114 36.4688 37.8125 37.7698 37.8125 40.6875V43.2188H35.2812C32.3636 43.2188 31.0625 41.9177 31.0625 39ZM45.6366 63.3717C45.5699 63.8729 45.0688 64.3125 44.5625 64.3125H32.75C32.2446 64.3125 31.7426 63.8729 31.6759 63.3717L30.3386 53.3438H46.9731L45.6366 63.3717ZM49.625 50.8125C49.625 51.2774 49.247 51.6562 48.7812 51.6562H28.5312C28.0663 51.6562 27.6875 51.2774 27.6875 50.8125V49.9688C27.6875 49.5038 28.0663 49.125 28.5312 49.125H48.7812C49.247 49.125 49.625 49.5038 49.625 49.9688V50.8125Z" fill="#0A85FF"/>
</svg>
