<svg width="826" height="1051" viewBox="0 0 826 1051" fill="none" xmlns="http://www.w3.org/2000/svg">
<path d="M744.999 256.843H503.086L401.426 151.852H221.639L80.4452 6.7038L81.8571 5.73615L222.11 150.401H401.897L503.557 254.908H744.999V256.843Z" fill="#64B2FF"/>
<path d="M744.528 249.586C747.823 249.586 750.647 252.489 750.647 255.875C750.647 259.262 747.823 262.165 744.528 262.165C741.234 262.165 738.41 259.262 738.41 255.875C738.41 252.489 741.234 249.586 744.528 249.586Z" fill="#64B2FF"/>
<path d="M85.6226 2.34957C83.2693 -0.069568 79.5041 -0.069568 77.1509 2.34957C74.7977 4.76871 74.7977 8.63934 77.1509 11.0585C79.5041 13.4776 83.2693 13.4776 85.6226 11.0585C87.9758 8.63934 87.9758 4.76871 85.6226 2.34957Z" fill="#64B2FF"/>
<path d="M-1.91722 1045H-165.232V1043.55H-2.85852L87.035 951.137H266.822L368.953 846.146H616.042L706.877 752.767L708.289 753.735L616.513 848.081H369.423L267.763 952.588H87.9763L-1.91722 1045Z" fill="#64B2FF"/>
<path d="M703.112 749.38C705.465 746.961 709.23 746.961 711.583 749.38C713.937 751.8 713.937 755.67 711.583 758.089C709.23 760.508 705.465 760.508 703.112 758.089C700.759 755.67 700.759 751.8 703.112 749.38Z" fill="#64B2FF"/>
<path d="M818.891 379.252L736.527 294.582H453.669L368.952 207.493H255.056L209.874 254.424H-135.111V252.972H208.932L254.585 206.041H369.423L454.139 293.13H737.469L819.832 378.284L818.891 379.252Z" fill="#64B2FF"/>
<path d="M819.361 384.574C822.74 384.574 825.479 381.758 825.479 378.284C825.479 374.81 822.74 371.994 819.361 371.994C815.982 371.994 813.243 374.81 813.243 378.284C813.243 381.758 815.982 384.574 819.361 384.574Z" fill="#64B2FF"/>
<path d="M593.921 825.341H497.909L427.312 752.767H288.471L219.757 681.644H13.1428V680.193H220.227L289.413 750.832H427.783L498.85 823.89H592.98L690.404 723.737L691.345 724.705L593.921 825.341Z" fill="#64B2FF"/>
<path d="M686.167 720.351C688.521 717.931 692.286 717.931 694.639 720.351C696.992 722.77 696.992 726.64 694.639 729.059C692.286 731.479 688.521 731.479 686.167 729.059C683.814 726.64 683.814 722.77 686.167 720.351Z" fill="#64B2FF"/>
<path d="M13.1428 686.966C16.5219 686.966 19.2612 684.15 19.2612 680.677C19.2612 677.203 16.5219 674.387 13.1428 674.387C9.76373 674.387 7.02441 677.203 7.02441 680.677C7.02441 684.15 9.76373 686.966 13.1428 686.966Z" fill="#64B2FF"/>
<path d="M808.536 418.926L728.056 336.191H458.846L368.482 243.78H286.118L220.228 311.516H-39.0985V310.064H219.287L285.648 242.328H369.423L459.316 334.739H728.997L809.948 417.958L808.536 418.926Z" fill="#64B2FF"/>
<path d="M804.771 422.796C807.124 425.215 810.889 425.215 813.243 422.796C815.596 420.377 815.596 416.506 813.243 414.087C810.889 411.668 807.124 411.668 804.771 414.087C802.418 416.506 802.418 420.377 804.771 422.796Z" fill="#64B2FF"/>
<path d="M581.684 744.058H464.493L328.947 604.716H48.9122L-18.3903 674.387L-19.8022 672.935L48.4416 603.264H329.418L464.964 742.606H580.743L647.575 674.387H767.59V675.838H648.046L581.684 744.058Z" fill="#64B2FF"/>
<path d="M767.119 669.065C770.414 669.065 773.238 671.968 773.238 675.354C773.238 678.741 770.414 681.644 767.119 681.644C763.825 681.644 761.001 678.741 761.001 675.354C761.001 671.484 763.825 669.065 767.119 669.065Z" fill="#64B2FF"/>
<path d="M607.57 773.088H543.092V771.152H606.629L680.05 695.675L680.991 697.127L607.57 773.088Z" fill="#64B2FF"/>
<path d="M676.284 692.289C678.638 689.869 682.403 689.869 684.756 692.289C687.109 694.708 687.109 698.578 684.756 700.997C682.403 703.417 678.638 703.417 676.284 700.997C673.931 698.578 673.931 694.708 676.284 692.289Z" fill="#64B2FF"/>
<path d="M543.092 778.41C546.471 778.41 549.21 775.594 549.21 772.12C549.21 768.646 546.471 765.83 543.092 765.83C539.713 765.83 536.973 768.646 536.973 772.12C536.973 775.594 539.713 778.41 543.092 778.41Z" fill="#64B2FF"/>
<path d="M808.536 468.277L722.408 379.736H479.554L398.132 296.034H263.056L192.459 368.124H-99.3418L-185.941 279.584L-185 278.616L-98.8711 366.673H191.989L262.115 294.098H398.603L480.025 377.801H722.878L809.948 467.309L808.536 468.277Z" fill="#64B2FF"/>
<path d="M813.243 462.954C815.596 465.374 815.596 469.244 813.243 471.663C810.89 474.082 807.125 474.082 804.771 471.663C802.418 469.244 802.418 465.374 804.771 462.954C807.125 460.535 810.89 460.535 813.243 462.954Z" fill="#64B2FF"/>
<path d="M772.296 485.694L702.17 413.603H484.731L399.544 326.03H268.234L160.926 436.343L159.985 434.892L267.292 324.579H400.485L485.202 411.668H703.111L773.708 484.242L772.296 485.694Z" fill="#64B2FF"/>
<path d="M777.003 480.371C779.356 482.791 779.356 486.661 777.003 489.08C774.65 491.5 770.884 491.5 768.531 489.08C766.178 486.661 766.178 482.791 768.531 480.371C770.884 477.952 774.65 477.952 777.003 480.371Z" fill="#64B2FF"/>
<path d="M160.926 441.665C164.305 441.665 167.044 438.849 167.044 435.376C167.044 431.902 164.305 429.086 160.926 429.086C157.547 429.086 154.808 431.902 154.808 435.376C154.808 438.849 157.547 441.665 160.926 441.665Z" fill="#64B2FF"/>
<path d="M535.561 702.449H454.14L298.826 542.785H-113.461V540.85H299.297L454.61 700.997H535.091L592.98 641.002H750.647L818.891 570.847L819.832 572.299L751.588 642.454H593.922L535.561 702.449Z" fill="#64B2FF"/>
<path d="M815.125 567.461C817.479 565.042 821.244 565.042 823.597 567.461C825.95 569.88 825.95 573.751 823.597 576.17C821.244 578.589 817.479 578.589 815.125 576.17C812.772 573.751 812.772 569.88 815.125 567.461Z" fill="#64B2FF"/>
<path d="M457.904 511.337H402.839V509.402H457.434L507.793 457.632H696.522V459.083H508.734L457.904 511.337Z" fill="#64B2FF"/>
<path d="M696.052 452.31C699.346 452.31 702.17 455.213 702.17 458.6C702.17 461.986 699.346 464.889 696.052 464.889C692.757 464.889 689.933 461.986 689.933 458.6C689.933 455.213 692.757 452.31 696.052 452.31Z" fill="#64B2FF"/>
<path d="M402.839 516.659C406.218 516.659 408.957 513.843 408.957 510.369C408.957 506.895 406.218 504.079 402.839 504.079C399.459 504.079 396.72 506.895 396.72 510.369C396.72 513.843 399.459 516.659 402.839 516.659Z" fill="#64B2FF"/>
<path d="M454.61 460.051L377.424 380.703H265.881V379.252H377.895L455.551 459.084L454.61 460.051Z" fill="#64B2FF"/>
<path d="M458.846 455.213C461.199 457.632 461.199 461.503 458.846 463.922C456.492 466.341 452.727 466.341 450.374 463.922C448.021 461.503 448.021 457.632 450.374 455.213C452.727 452.794 456.963 452.794 458.846 455.213Z" fill="#64B2FF"/>
<path d="M265.88 373.93C262.586 373.93 259.762 376.833 259.762 380.22C259.762 383.607 262.586 386.51 265.88 386.51C269.175 386.51 271.999 383.607 271.999 380.22C271.999 376.833 269.175 373.93 265.88 373.93Z" fill="#64B2FF"/>
<path d="M402.839 468.276L348.714 412.636H250.349V411.184H349.656L403.78 467.309L402.839 468.276Z" fill="#64B2FF"/>
<path d="M403.309 473.598C406.688 473.598 409.428 470.782 409.428 467.309C409.428 463.835 406.688 461.019 403.309 461.019C399.93 461.019 397.191 463.835 397.191 467.309C397.191 470.782 399.93 473.598 403.309 473.598Z" fill="#64B2FF"/>
<path d="M250.349 418.442C253.728 418.442 256.468 415.626 256.468 412.152C256.468 408.678 253.728 405.862 250.349 405.862C246.97 405.862 244.231 408.678 244.231 412.152C244.231 415.626 246.97 418.442 250.349 418.442Z" fill="#64B2FF"/>
<path d="M364.716 710.674L295.06 639.551H72.4443V637.616H296.002L365.657 709.707L364.716 710.674Z" fill="#64B2FF"/>
<path d="M368.952 705.836C371.306 708.255 371.306 712.126 368.952 714.545C366.599 716.964 362.834 716.964 360.481 714.545C358.127 712.126 358.127 708.255 360.481 705.836C362.834 703.417 366.599 703.417 368.952 705.836Z" fill="#64B2FF"/>
<path d="M72.9153 644.874C76.2944 644.874 79.0337 642.058 79.0337 638.584C79.0337 635.11 76.2944 632.294 72.9153 632.294C69.5362 632.294 66.7969 635.11 66.7969 638.584C66.7969 642.058 69.5362 644.874 72.9153 644.874Z" fill="#64B2FF"/>
<path d="M-1.44714 1003.39H-152.525V1001.94H-1.91779L112.92 883.401H244.701L319.534 806.472H461.669V807.923H320.475L245.172 885.336H113.391L-1.44714 1003.39Z" fill="#64B2FF"/>
<path d="M461.199 813.729C464.578 813.729 467.317 810.913 467.317 807.44C467.317 803.966 464.578 801.15 461.199 801.15C457.82 801.15 455.081 803.966 455.081 807.44C455.081 810.913 457.82 813.729 461.199 813.729Z" fill="#64B2FF"/>
<path d="M-158.643 822.438L-160.055 820.987L-70.6321 729.543H196.225L247.996 782.765H409.898V784.216H247.525L195.754 730.995H-70.1615L-158.643 822.438Z" fill="#64B2FF"/>
<path d="M409.898 789.538C413.278 789.538 416.017 786.722 416.017 783.249C416.017 779.775 413.278 776.959 409.898 776.959C406.519 776.959 403.78 779.775 403.78 783.249C403.78 786.722 406.519 789.538 409.898 789.538Z" fill="#64B2FF"/>
<path d="M-10.3893 922.591H-135.111L-179.352 877.111L-177.94 876.143L-134.64 920.656H-11.3306L81.8575 824.858H234.347V826.793H82.7988L-10.3893 922.591Z" fill="#64B2FF"/>
<path d="M233.876 819.536C237.171 819.536 239.995 822.439 239.995 825.825C239.995 829.212 237.171 832.115 233.876 832.115C230.582 832.115 227.758 829.212 227.758 825.825C227.758 822.439 230.582 819.536 233.876 819.536Z" fill="#64B2FF"/>
<path d="M-45.2169 860.177H-108.284V858.242H-46.1582L24.9095 785.184H182.576V787.119H25.8508L-45.2169 860.177Z" fill="#64B2FF"/>
<path d="M182.105 779.862C185.4 779.862 188.224 782.765 188.224 786.152C188.224 789.538 185.4 792.441 182.105 792.441C178.811 792.441 175.987 789.538 175.987 786.152C176.457 782.765 178.811 779.862 182.105 779.862Z" fill="#64B2FF"/>
<path d="M-174.175 702.933L-175.587 701.481L-60.2782 583.427H241.877V584.879H-59.8076L-174.175 702.933Z" fill="#64B2FF"/>
<path d="M241.877 578.105C245.172 578.105 247.996 581.008 247.996 584.395C247.996 587.782 245.172 590.685 241.877 590.685C238.583 590.685 235.759 587.782 235.759 584.395C235.759 580.524 238.583 578.105 241.877 578.105Z" fill="#64B2FF"/>
<path d="M489.438 650.195H440.961L299.767 504.563H-139.346V503.112H300.238L441.903 648.26H488.967L544.504 591.168H696.993L741.705 545.205L743.117 546.172L697.935 593.104H545.445L489.438 650.195Z" fill="#64B2FF"/>
<path d="M737.939 541.818C740.292 539.399 744.058 539.399 746.411 541.818C748.764 544.237 748.764 548.108 746.411 550.527C744.058 552.946 740.292 552.946 737.939 550.527C735.586 548.108 735.586 544.237 737.939 541.818Z" fill="#64B2FF"/>
<path d="M485.202 605.683H433.431L296.943 464.889H-162.879V463.438H297.414L433.901 603.748H484.26L523.795 563.59H685.227L726.644 521.013L727.585 522.465L686.168 565.041H524.736L485.202 605.683Z" fill="#64B2FF"/>
<path d="M722.408 517.627C724.761 515.207 728.527 515.207 730.88 517.627C733.233 520.046 733.233 523.916 730.88 526.336C728.527 528.755 724.761 528.755 722.408 526.336C720.055 523.916 720.055 520.046 722.408 517.627Z" fill="#64B2FF"/>
<path d="M482.378 548.592L480.966 547.624L534.149 492.952H699.346V494.403H535.09L482.378 548.592Z" fill="#64B2FF"/>
<path d="M699.346 487.63C702.641 487.63 705.465 490.533 705.465 493.919C705.465 497.306 702.641 500.209 699.346 500.209C696.052 500.209 693.228 497.306 693.228 493.919C693.228 490.533 696.052 487.63 699.346 487.63Z" fill="#64B2FF"/>
<path d="M481.907 554.398C485.287 554.398 488.026 551.582 488.026 548.108C488.026 544.634 485.287 541.818 481.907 541.818C478.528 541.818 475.789 544.634 475.789 548.108C475.789 551.582 478.528 554.398 481.907 554.398Z" fill="#64B2FF"/>
<path d="M345.42 186.204H182.576L58.3251 58.957L59.737 57.5056L183.517 184.752H345.42V186.204Z" fill="#64B2FF"/>
<path d="M344.949 179.431C348.244 179.431 351.068 182.334 351.068 185.72C351.068 189.107 348.244 192.01 344.949 192.01C341.655 192.01 338.831 189.107 338.831 185.72C339.302 182.334 341.655 179.431 344.949 179.431Z" fill="#64B2FF"/>
<path d="M63.5024 54.119C61.1492 51.6998 57.384 51.6998 55.0308 54.119C52.6776 56.5381 52.6776 60.4087 55.0308 62.8279C57.384 65.247 61.1492 65.247 63.5024 62.8279C65.8557 60.4087 65.8557 56.5381 63.5024 54.119Z" fill="#64B2FF"/>
<path d="M127.511 188.139L47.5007 105.889H-172.291V104.437H48.442L128.452 186.688L127.511 188.139Z" fill="#64B2FF"/>
<path d="M132.217 182.818C134.57 185.237 134.57 189.107 132.217 191.527C129.864 193.946 126.098 193.946 123.745 191.527C121.392 189.107 121.392 185.237 123.745 182.818C126.098 180.399 129.864 180.399 132.217 182.818Z" fill="#64B2FF"/>
</svg>
