<svg width="77" height="48" viewBox="0 0 77 48" fill="none" xmlns="http://www.w3.org/2000/svg">
<path fill-rule="evenodd" clip-rule="evenodd" d="M7.50204 0.052562C5.0961 0.21424 3.0527 0.881679 1.91361 2.19335C0.475857 3.85159 0.337309 5.49158 0.206226 8.17544C-0.0376867 13.2754 0.134875 18.4565 0.0660157 23.578C-0.0562889 26.0685 -0.00861196 28.5644 0.208714 31.0484C0.631828 34.1634 4.53029 35.2827 7.28799 35.5082C7.90192 35.5588 8.49013 35.5497 9.11319 35.553C10.7492 35.5629 9.51391 37.7626 10.7152 39.7889C11.3847 40.9174 16.9184 40.8179 17.4095 40.4042C17.9903 39.9183 17.8045 37.4052 17.5522 37.0329C16.9889 36.2038 13.185 37.3488 14.5456 34.898C14.7829 34.471 15.2666 34.2819 15.6034 33.9926C17.3249 32.5118 17.4809 31.1503 17.5987 28.2559C17.7704 24.0216 17.9837 9.08831 17.4386 5.52475C16.6737 0.520184 11.7929 -0.233484 7.50038 0.052562H7.50204ZM9.8358 6.48321C10.1317 8.46764 10.2215 10.4773 10.1038 12.4802L10.0905 25.9178C10.0789 27.047 10.2373 29.8304 9.39029 30.2748C9.18493 30.3776 8.95235 30.4131 8.72564 30.3762C8.49894 30.3393 8.28966 30.2318 8.12758 30.0692C7.52195 29.3777 7.69949 24.9916 7.69949 23.8035V10.366C7.70945 9.30305 7.58002 6.51555 8.41464 6.05456C8.52237 5.98773 8.64273 5.94382 8.7682 5.92556C8.89367 5.9073 9.02156 5.91509 9.14389 5.94843C9.30058 5.95515 9.45136 6.01015 9.57554 6.1059C9.69971 6.20164 9.79121 6.33344 9.83746 6.48321H9.8358Z" fill="white"/>
<path fill-rule="evenodd" clip-rule="evenodd" d="M29.713 33.9663C29.9328 34.7125 29.5993 35.1975 30.414 35.4446C30.7052 35.5325 36.1941 35.6378 36.7043 35.3169C37.251 34.9728 37.1457 34.3477 37.1457 33.56V9.25106C37.1457 7.11028 37.2336 6.95191 35.0226 6.95191C33.5639 6.8833 32.1025 6.89243 30.6447 6.97928C29.5105 7.1907 29.815 8.92853 29.815 10.5345C29.815 12.9887 29.9104 29.1897 29.6765 30.2601C29.5188 30.9798 28.9705 31.037 28.164 30.969C27.5402 29.8083 27.6347 28.5215 27.6148 27.068C27.5319 21.1282 27.5916 14.9231 27.5933 8.94926C27.5933 6.79355 27.3775 6.95191 25.0471 6.95191C24.1893 6.95191 21.1752 6.79604 20.6766 7.14924C20.1622 7.51406 20.2667 8.25197 20.2676 9.02471C20.2676 15.7613 20.1888 22.6156 20.3165 29.329C20.2712 30.6566 20.4744 31.9811 20.9155 33.2342C21.4322 34.3348 22.343 35.2017 23.4681 35.6639C24.5932 36.1261 25.8508 36.1499 26.9926 35.7306C28.4312 35.1768 29.0982 34.0426 29.7088 33.9663" fill="white"/>
<path fill-rule="evenodd" clip-rule="evenodd" d="M67.6572 26.4438C67.9152 26.8633 68.7805 32.7517 68.9506 33.7823C69.2542 35.6205 69.6383 35.4995 71.51 35.4995C75.8133 35.4995 76.5002 35.953 75.99 33.8346C75.0608 29.951 73.8894 25.3635 73.0929 21.6299C72.7354 19.9543 73.8214 16.0326 74.1997 14.2856C74.461 13.0784 74.6975 11.9549 74.9588 10.7353C75.9162 6.29621 76.1659 6.95204 71.3557 6.95204C69.3928 6.95204 69.221 6.99184 68.9182 8.86316C68.7606 9.83655 67.877 15.9107 67.6538 16.2614C67.3892 15.9654 67.3693 15.0849 67.2913 14.5899C67.1975 13.9938 67.098 13.3645 67.0042 12.7741C66.806 11.5304 66.6193 10.3523 66.4235 9.11853C66.1564 7.44122 66.226 6.9479 64.3303 6.95204C59.0132 6.96199 59.7325 5.79128 61.5784 14.0443C61.9559 15.7324 63.0543 19.5091 62.9423 21.0918C62.8851 21.8961 61.7726 26.8434 61.522 28.0357C61.2789 29.1923 61.0383 30.368 60.7886 31.523C59.8038 36.0948 59.4479 35.4986 64.0242 35.5028C65.8992 35.5028 66.0892 35.4489 66.3779 33.6547L67.2614 28.1825C67.3137 27.8624 67.3585 27.5921 67.4058 27.287C67.4298 27.132 67.4464 26.9662 67.4763 26.8235L67.6572 26.4438Z" fill="white"/>
<path fill-rule="evenodd" clip-rule="evenodd" d="M39.8039 1.92807V34.2389C39.8039 35.1161 40.188 35.4991 41.0666 35.4991H46.1274C46.957 35.4991 47.3112 35.0638 47.3112 34.2389V1.92807C47.3112 1.05418 46.9288 0.688538 46.0519 0.688538H41.0657C40.1955 0.688538 39.803 1.07491 39.803 1.92807" fill="white"/>
<path fill-rule="evenodd" clip-rule="evenodd" d="M50.5853 7.03642C49.9606 7.27853 49.9324 7.82657 49.9341 8.57029V33.4082C49.9341 35.6427 50.1639 35.4984 52.3226 35.4984C58.1242 35.4984 57.4771 36.2289 57.4771 31.6721V9.09927C57.4771 6.77774 57.2954 6.95103 55.0421 6.95103C53.556 6.8851 52.0672 6.91279 50.5845 7.03394" fill="white"/>
<path fill-rule="evenodd" clip-rule="evenodd" d="M50.6245 0.750429C49.7658 1.03482 49.935 2.07702 49.935 2.98905C49.935 4.00306 49.7981 5.00049 50.7431 5.17958C51.1048 5.24757 56.4784 5.23431 56.7596 5.16051C57.6565 4.92587 57.4781 3.85465 57.4781 2.9136C57.4781 1.89959 57.644 0.875625 56.6285 0.712288C56.1457 0.63518 50.8982 0.663369 50.6245 0.753743" fill="white"/>
<path d="M32.8769 46.6572C33.4232 46.9845 34.0469 47.1602 34.6838 47.1663C35.7151 47.1663 36.3174 46.6215 36.3174 45.8347C36.3174 45.1059 35.9026 44.6889 34.8456 44.2834C33.5721 43.8324 32.7848 43.1724 32.7848 42.073C32.7848 40.8575 33.792 39.9546 35.3094 39.9546C35.908 39.9341 36.5019 40.0656 37.0359 40.3368L36.7571 41.1585C36.3014 40.9137 35.7919 40.7864 35.2745 40.7879C34.2093 40.7879 33.8036 41.4254 33.8036 41.9569C33.8036 42.6865 34.2781 43.0455 35.3558 43.4626C36.6758 43.9708 37.347 44.6084 37.347 45.7543C37.347 46.9582 36.4543 48.0004 34.6092 48.0004C33.9137 48.0086 33.2278 47.8372 32.618 47.5029L32.8769 46.6572Z" fill="white"/>
<path d="M40.4661 47.8835V44.5728L37.9988 40.0806H39.1453L40.2454 42.2363C40.5466 42.8275 40.7781 43.3026 41.0211 43.8465H41.0452C41.2651 43.3366 41.5314 42.8275 41.8325 42.2363L42.9559 40.0806H44.1024L41.4849 44.5579V47.8802L40.4661 47.8835Z" fill="white"/>
<path d="M44.7062 46.6536C45.2525 46.9809 45.8762 47.1566 46.5131 47.1627C47.5444 47.1627 48.1458 46.6179 48.1458 45.8311C48.1458 45.1023 47.731 44.6853 46.6749 44.2798C45.4014 43.8288 44.6141 43.1688 44.6141 42.0694C44.6141 40.8539 45.6204 39.951 47.1378 39.951C47.7367 39.9305 48.3309 40.062 48.8651 40.3332L48.5864 41.1549C48.1307 40.9101 47.6211 40.7828 47.1038 40.7843C46.0377 40.7843 45.6329 41.4218 45.6329 41.9533C45.6329 42.6829 46.1074 43.0419 47.1851 43.459C48.5051 43.9672 49.1763 44.6048 49.1763 45.7507C49.1763 46.9546 48.2836 47.9968 46.4426 47.9968C45.7471 48.0051 45.0612 47.8337 44.4515 47.4993L44.7062 46.6536Z" fill="white"/>
<path d="M52.0402 40.9363H49.6649V40.079H55.445V40.9355H53.0556V47.881H52.0402V40.9363Z" fill="white"/>
<path d="M60.3564 44.2246H57.3216V47.0378H60.7041V47.8826H56.3145V40.079H60.5307V40.923H57.3216V43.3896H60.3564V44.2246Z" fill="white"/>
<path d="M68.5927 44.4542C68.5355 43.3664 68.4658 42.0581 68.4766 41.0855H68.4417C68.1754 41.9976 67.851 42.9726 67.4578 44.0488L66.0806 47.8346H65.3157L64.053 44.1184C63.6821 43.019 63.3693 42.0117 63.1495 41.0855H63.1263C63.103 42.0581 63.0433 43.3664 62.9753 44.5355L62.767 47.881H61.8055L62.3497 40.079H63.6357L64.9681 43.8523C65.2924 44.8132 65.5588 45.6697 65.7554 46.4798H65.7902C65.9868 45.6929 66.2656 44.8365 66.6124 43.8523L68.0029 40.079H69.2888L69.775 47.881H68.7902L68.5927 44.4542Z" fill="white"/>
<path d="M71.1896 46.6543C71.7357 46.9815 72.3591 47.1572 72.9957 47.1634C74.0278 47.1634 74.6293 46.6187 74.6293 45.8318C74.6293 45.103 74.2145 44.686 73.1584 44.2805C71.8849 43.8295 71.0967 43.1695 71.0967 42.0701C71.0967 40.8546 72.1039 39.9517 73.6213 39.9517C74.2199 39.9312 74.8139 40.0627 75.3478 40.3339L75.069 41.1556C74.6134 40.9106 74.1038 40.7832 73.5865 40.785C72.5212 40.785 72.1163 41.4226 72.1163 41.954C72.1163 42.6837 72.5909 43.0427 73.6686 43.4597C74.9885 43.968 75.6597 44.6056 75.6597 45.7514C75.6597 46.9553 74.7679 47.9975 72.9219 47.9975C72.2264 48.0059 71.5405 47.8345 70.9308 47.5L71.1896 46.6543Z" fill="white"/>
</svg>
