<svg width="78" height="78" viewBox="0 0 78 78" fill="none" xmlns="http://www.w3.org/2000/svg">
<circle cx="39" cy="39" r="39" fill="#E6F3FF"/>
<path d="M39.5 39.2002C41.4988 39.2002 43.125 37.574 43.125 35.5752C43.125 33.5764 41.4988 31.9502 39.5 31.9502C37.5012 31.9502 35.875 33.5764 35.875 35.5752C35.875 37.574 37.5012 39.2002 39.5 39.2002ZM39.5 33.4002C40.6992 33.4002 41.675 34.376 41.675 35.5752C41.675 36.7743 40.6992 37.7502 39.5 37.7502C38.3009 37.7502 37.325 36.7743 37.325 35.5752C37.325 34.376 38.3009 33.4002 39.5 33.4002Z" fill="#0A85FF"/>
<path d="M39.5 52.2502C37.5012 52.2502 35.875 53.8764 35.875 55.8752C35.875 57.6145 38.3973 61.3555 38.9033 62.087C39.0389 62.2835 39.2615 62.4002 39.5 62.4002C39.7385 62.4002 39.9611 62.2835 40.0967 62.087C40.6027 61.3555 43.125 57.6145 43.125 55.8752C43.125 53.8764 41.4988 52.2502 39.5 52.2502ZM39.5 60.3644C38.4567 58.7339 37.325 56.6677 37.325 55.8752C37.325 54.6761 38.3009 53.7002 39.5 53.7002C40.6992 53.7002 41.675 54.6761 41.675 55.8752C41.675 56.6669 40.5433 58.7339 39.5 60.3644Z" fill="#0A85FF"/>
<path d="M46.75 35.1177V26.8752C46.75 19.2417 40.0785 16.1887 39.7943 16.0625C39.6066 15.9792 39.3927 15.9792 39.2049 16.0625C38.9215 16.1887 32.25 19.2417 32.25 26.8752V35.1177C30.5992 35.9594 25 39.3887 25 47.1752C25 47.5754 25.3248 47.9002 25.725 47.9002H34.5838L35.1718 50.2514C35.2522 50.574 35.5422 50.8002 35.875 50.8002H43.125C43.4578 50.8002 43.7478 50.5733 43.8283 50.2514L44.4162 47.9002H53.275C53.6752 47.9002 54 47.5754 54 47.1752C54 39.3887 48.4008 35.9594 46.75 35.1177ZM32.25 46.4502H26.4674C26.4928 45.9434 26.5479 45.4627 26.6218 45.0002H32.25V46.4502ZM32.25 43.5502H26.951C28.0624 39.6874 30.7703 37.6255 32.25 36.7591V43.5502ZM46.75 36.7591C48.2305 37.6262 50.9369 39.6881 52.049 43.5502H46.75V36.7591ZM39.4971 17.535C40.66 18.1578 44.9034 20.7997 45.2645 26.1502H33.7348C34.0915 20.7562 38.3117 18.1578 39.4971 17.535ZM42.5588 49.3502H36.4412L36.0787 47.9002H42.9213L42.5588 49.3502ZM45.3 46.4502H33.7V35.5904C33.7 35.5897 33.7 35.589 33.7 35.5882V27.6002H45.3V46.4502ZM46.75 46.4502V45.0002H52.3775C52.4514 45.4627 52.5072 45.9434 52.5319 46.4502H46.75Z" fill="#0A85FF"/>
</svg>
